{
  "accessors": [
    {
      "bufferView": 2,
      "componentType": 5126,
      "count": 11080,
      "max": [
        3.3552026748657227,
        3.021798610687256,
        2.374192714691162
      ],
      "min": [
        -2.6868033409118652,
        -3.449284076690674,
        -3.9243454933166504
      ],
      "type": "VEC3"
    },
    {
      "bufferView": 2,
      "byteOffset": 132960,
      "componentType": 5126,
      "count": 11080,
      "max": [
        0.9998956918716431,
        0.999775767326355,
        0.9992822408676147
      ],
      "min": [
        -0.9998888969421387,
        -0.9995977878570557,
        -0.9992766380310059
      ],
      "type": "VEC3"
    },
    {
      "bufferView": 1,
      "componentType": 5126,
      "count": 11080,
      "max": [
        0.9026685953140259,
        0.993690550327301
      ],
      "min": [
        0.0031742972787469625,
        0.0006428532651625574
      ],
      "type": "VEC2"
    },
    {
      "bufferView": 0,
      "componentType": 5125,
      "count": 46830,
      "type": "SCALAR"
    },
    {
      "bufferView": 2,
      "byteOffset": 265920,
      "componentType": 5126,
      "count": 1815,
      "max": [
        3.306450605392456,
        3.0174474716186523,
        1.9779531955718994
      ],
      "min": [
        -2.532144069671631,
        -3.2648487091064453,
        -3.9243454933166504
      ],
      "type": "VEC3"
    },
    {
      "bufferView": 2,
      "byteOffset": 287700,
      "componentType": 5126,
      "count": 1815,
      "max": [
        0.9945642352104187,
        0.9992135763168335,
        0.9708429574966431
      ],
      "min": [
        -0.9980894923210144,
        -0.9988752007484436,
        -0.9989956021308899
      ],
      "type": "VEC3"
    },
    {
      "bufferView": 1,
      "byteOffset": 88640,
      "componentType": 5126,
      "count": 1815,
      "max": [
        0.9011252522468567,
        0.993690550327301
      ],
      "min": [
        0.0031742972787469625,
        0.0017144475132226944
      ],
      "type": "VEC2"
    },
    {
      "bufferView": 0,
      "byteOffset": 187320,
      "componentType": 5125,
      "count": 6996,
      "type": "SCALAR"
    },
    {
      "bufferView": 2,
      "byteOffset": 309480,
      "componentType": 5126,
      "count": 14352,
      "max": [
        0.9410700798034668,
        0.9763946533203125,
        0.9601490497589111
      ],
      "min": [
        -1.005366325378418,
        -3.017472267150879,
        -7.052361965179443
      ],
      "type": "VEC3"
    },
    {
      "bufferView": 2,
      "byteOffset": 481704,
      "componentType": 5126,
      "count": 14352,
      "max": [
        0.9999746084213257,
        0.9972184896469116,
        0.9857332110404968
      ],
      "min": [
        -0.9999709129333496,
        -0.9962342381477356,
        -0.9857617616653442
      ],
      "type": "VEC3"
    },
    {
      "bufferView": 1,
      "byteOffset": 103160,
      "componentType": 5126,
      "count": 14352,
      "max": [
        1.0,
        1.0
      ],
      "min": [
        0.0,
        0.0
      ],
      "type": "VEC2"
    },
    {
      "bufferView": 0,
      "byteOffset": 215304,
      "componentType": 5125,
      "count": 21528,
      "type": "SCALAR"
    },
    {
      "bufferView": 2,
      "byteOffset": 653928,
      "componentType": 5126,
      "count": 65532,
      "max": [
        0.5781227350234985,
        0.8928648233413696,
        -5.31570291519165
      ],
      "min": [
        -0.0342085063457489,
        -0.6804948449134827,
        -6.223311424255371
      ],
      "type": "VEC3"
    },
    {
      "bufferView": 2,
      "byteOffset": 1440312,
      "componentType": 5126,
      "count": 65532,
      "max": [
        0.9998636841773987,
        0.8930277228355408,
        0.9999332427978516
      ],
      "min": [
        -0.36237430572509766,
        -0.4275084137916565,
        -0.9996499419212341
      ],
      "type": "VEC3"
    },
    {
      "bufferView": 1,
      "byteOffset": 217976,
      "componentType": 5126,
      "count": 65532,
      "max": [
        6.667271614074707,
        6.489346504211426
      ],
      "min": [
        0.4657914936542511,
        -0.18049484491348267
      ],
      "type": "VEC2"
    },
    {
      "bufferView": 0,
      "byteOffset": 301416,
      "componentType": 5125,
      "count": 98298,
      "type": "SCALAR"
    },
    {
      "bufferView": 2,
      "byteOffset": 2226696,
      "componentType": 5126,
      "count": 65532,
      "max": [
        0.6552474498748779,
        0.9225318431854248,
        -5.3162641525268555
      ],
      "min": [
        -0.03538191318511963,
        -1.3406291007995605,
        -6.221911430358887
      ],
      "type": "VEC3"
    },
    {
      "bufferView": 2,
      "byteOffset": 3013080,
      "componentType": 5126,
      "count": 65532,
      "max": [
        0.9875394105911255,
        0.9830086827278137,
        0.9999982118606567
      ],
      "min": [
        -0.7056863307952881,
        -0.9998857975006104,
        -0.9976457953453064
      ],
      "type": "VEC3"
    },
    {
      "bufferView": 1,
      "byteOffset": 742232,
      "componentType": 5126,
      "count": 65532,
      "max": [
        6.668282508850098,
        6.630867958068848
      ],
      "min": [
        0.46461808681488037,
        -0.8113569021224976
      ],
      "type": "VEC2"
    },
    {
      "bufferView": 0,
      "byteOffset": 694608,
      "componentType": 5125,
      "count": 98298,
      "type": "SCALAR"
    },
    {
      "bufferView": 2,
      "byteOffset": 3799464,
      "componentType": 5126,
      "count": 65532,
      "max": [
        0.6750531196594238,
        0.3295084536075592,
        -5.432884216308594
      ],
      "min": [
        -0.5405343770980835,
        -1.3318620920181274,
        -6.204787254333496
      ],
      "type": "VEC3"
    },
    {
      "bufferView": 2,
      "byteOffset": 4585848,
      "componentType": 5126,
      "count": 65532,
      "max": [
        0.999991238117218,
        0.9993181228637695,
        0.9999949932098389
      ],
      "min": [
        -0.706818699836731,
        -0.9925619959831238,
        -0.9947567582130432
      ],
      "type": "VEC3"
    },
    {
      "bufferView": 1,
      "byteOffset": 1266488,
      "componentType": 5126,
      "count": 65532,
      "max": [
        6.654573440551758,
        6.643362998962402
      ],
      "min": [
        -0.040534377098083496,
        -0.7999933958053589
      ],
      "type": "VEC2"
    },
    {
      "bufferView": 0,
      "byteOffset": 1087800,
      "componentType": 5125,
      "count": 98298,
      "type": "SCALAR"
    },
    {
      "bufferView": 2,
      "byteOffset": 5372232,
      "componentType": 5126,
      "count": 65532,
      "max": [
        -0.05431339144706726,
        0.9286836385726929,
        -5.3171796798706055
      ],
      "min": [
        -0.7638326287269592,
        -1.3406291007995605,
        -6.211585998535156
      ],
      "type": "VEC3"
    },
    {
      "bufferView": 2,
      "byteOffset": 6158616,
      "componentType": 5126,
      "count": 65532,
      "max": [
        0.7068266868591309,
        0.9961186051368713,
        0.9999340176582336
      ],
      "min": [
        -0.999991238117218,
        -0.9993930459022522,
        -0.9999196529388428
      ],
      "type": "VEC3"
    },
    {
      "bufferView": 1,
      "byteOffset": 1790744,
      "componentType": 5126,
      "count": 65532,
      "max": [
        6.671028137207031,
        6.656241416931152
      ],
      "min": [
        -0.23634850978851318,
        -0.8113569021224976
      ],
      "type": "VEC2"
    },
    {
      "bufferView": 0,
      "byteOffset": 1480992,
      "componentType": 5125,
      "count": 98298,
      "type": "SCALAR"
    },
    {
      "bufferView": 2,
      "byteOffset": 6945000,
      "componentType": 5126,
      "count": 65532,
      "max": [
        -0.044385164976119995,
        0.9295368194580078,
        -5.316813945770264
      ],
      "min": [
        -0.7494348883628845,
        -1.3350142240524292,
        -6.223363876342773
      ],
      "type": "VEC3"
    },
    {
      "bufferView": 2,
      "byteOffset": 7731384,
      "componentType": 5126,
      "count": 65532,
      "max": [
        0.6989749670028687,
        0.9997876882553101,
        0.9999982714653015
      ],
      "min": [
        -0.9896453619003296,
        -0.9999619722366333,
        -0.9999066591262817
      ],
      "type": "VEC3"
    },
    {
      "bufferView": 1,
      "byteOffset": 2315000,
      "componentType": 5126,
      "count": 65532,
      "max": [
        6.659743309020996,
        6.643362998962402
      ],
      "min": [
        -0.22159355878829956,
        -0.8089660406112671
      ],
      "type": "VEC2"
    },
    {
      "bufferView": 0,
      "byteOffset": 1874184,
      "componentType": 5125,
      "count": 98298,
      "type": "SCALAR"
    },
    {
      "bufferView": 2,
      "byteOffset": 8517768,
      "componentType": 5126,
      "count": 65532,
      "max": [
        -0.09547406435012817,
        0.9105324745178223,
        -5.31570291519165
      ],
      "min": [
        -0.6669022440910339,
        -0.5767815113067627,
        -6.213191986083984
      ],
      "type": "VEC3"
    },
    {
      "bufferView": 2,
      "byteOffset": 9304152,
      "componentType": 5126,
      "count": 65532,
      "max": [
        0.36237847805023193,
        0.9408502578735352,
        0.9999333024024963
      ],
      "min": [
        -0.9998636841773987,
        -0.4274785816669464,
        -0.9976458549499512
      ],
      "type": "VEC3"
    },
    {
      "bufferView": 1,
      "byteOffset": 2839256,
      "componentType": 5126,
      "count": 65532,
      "max": [
        6.668282508850098,
        6.489346504211426
      ],
      "min": [
        -0.14114481210708618,
        -0.0767815113067627
      ],
      "type": "VEC2"
    },
    {
      "bufferView": 0,
      "byteOffset": 2267376,
      "componentType": 5125,
      "count": 98298,
      "type": "SCALAR"
    },
    {
      "bufferView": 2,
      "byteOffset": 10090536,
      "componentType": 5126,
      "count": 44568,
      "max": [
        0.6108230352401733,
        0.9295368194580078,
        -5.316531181335449
      ],
      "min": [
        -0.4975722134113312,
        -1.314942479133606,
        -6.223363876342773
      ],
      "type": "VEC3"
    },
    {
      "bufferView": 2,
      "byteOffset": 10625352,
      "componentType": 5126,
      "count": 44568,
      "max": [
        0.9855051040649414,
        0.9997876882553101,
        0.9999892711639404
      ],
      "min": [
        -0.9109401702880859,
        -0.9999619722366333,
        -0.9999197125434875
      ],
      "type": "VEC3"
    },
    {
      "bufferView": 1,
      "byteOffset": 3363512,
      "componentType": 5126,
      "count": 44568,
      "max": [
        6.671028137207031,
        6.656241416931152
      ],
      "min": [
        0.015369445085525513,
        -0.8045576810836792
      ],
      "type": "VEC2"
    },
    {
      "bufferView": 0,
      "byteOffset": 2660568,
      "componentType": 5125,
      "count": 66852,
      "type": "SCALAR"
    },
    {
      "bufferView": 2,
      "byteOffset": 11160168,
      "componentType": 5126,
      "count": 250,
      "max": [
        0.8395062685012817,
        0.8395062685012817,
        0.9424996972084045
      ],
      "min": [
        -7.29985237121582,
        -0.8395062685012817,
        -0.8395062685012817
      ],
      "type": "VEC3"
    },
    {
      "bufferView": 2,
      "byteOffset": 11163168,
      "componentType": 5126,
      "count": 250,
      "max": [
        1.0,
        1.0,
        1.0
      ],
      "min": [
        -1.0,
        -1.0,
        -1.0
      ],
      "type": "VEC3"
    },
    {
      "bufferView": 1,
      "byteOffset": 3720056,
      "componentType": 5126,
      "count": 250,
      "max": [
        0.8750001192092896,
        1.0000001192092896
      ],
      "min": [
        0.1250000149011612,
        0.0
      ],
      "type": "VEC2"
    },
    {
      "bufferView": 0,
      "byteOffset": 2927976,
      "componentType": 5125,
      "count": 1152,
      "type": "SCALAR"
    },
    {
      "bufferView": 2,
      "byteOffset": 11166168,
      "componentType": 5126,
      "count": 1429,
      "max": [
        1.4507405757904053,
        1.6157265901565552,
        1.0032775402069092
      ],
      "min": [
        -1.4038450717926025,
        -0.37180352210998535,
        -1.2857027053833008
      ],
      "type": "VEC3"
    },
    {
      "bufferView": 2,
      "byteOffset": 11183316,
      "componentType": 5126,
      "count": 1429,
      "max": [
        0.99919593334198,
        0.9964656829833984,
        0.9996417760848999
      ],
      "min": [
        -0.9985712170600891,
        -0.9992085695266724,
        -0.9936143159866333
      ],
      "type": "VEC3"
    },
    {
      "bufferView": 1,
      "byteOffset": 3722056,
      "componentType": 5126,
      "count": 1429,
      "max": [
        0.7500001192092896,
        0.8750001192092896
      ],
      "min": [
        0.25,
        0.3750000298023224
      ],
      "type": "VEC2"
    },
    {
      "bufferView": 0,
      "byteOffset": 2932584,
      "componentType": 5125,
      "count": 5952,
      "type": "SCALAR"
    }
  ],
  "asset": {
    "extras": {
      "author": "Sir_Isaias_ (https://sketchfab.com/Sir_Isaias_)",
      "license": "CC-BY-4.0 (http://creativecommons.org/licenses/by/4.0/)",
      "source": "https://sketchfab.com/3d-models/banana-duck-4226000d3f8d4b479af530d25f17b1a7",
      "title": "Banana duck"
    },
    "generator": "Sketchfab-12.65.0",
    "version": "2.0"
  },
  "bufferViews": [
    {
      "buffer": 0,
      "byteLength": 2956392,
      "name": "floatBufferViews",
      "target": 34963
    },
    {
      "buffer": 0,
      "byteLength": 3733488,
      "byteOffset": 2956392,
      "byteStride": 8,
      "name": "floatBufferViews",
      "target": 34962
    },
    {
      "buffer": 0,
      "byteLength": 11200464,
      "byteOffset": 6689880,
      "byteStride": 12,
      "name": "floatBufferViews",
      "target": 34962
    }
  ],
  "buffers": [
    {
      "byteLength": 17890344,
      "uri": "scene.bin"
    }
  ],
  "extensionsRequired": [
    "KHR_materials_pbrSpecularGlossiness"
  ],
  "extensionsUsed": [
    "KHR_materials_pbrSpecularGlossiness"
  ],
  "images": [
    {
      "uri": "textures/bananan_diffuse.png"
    }
  ],
  "materials": [
    {
      "doubleSided": true,
      "extensions": {
        "KHR_materials_pbrSpecularGlossiness": {
          "diffuseFactor": [
            1.0,
            1.0,
            1.0,
            1.0
          ],
          "diffuseTexture": {
            "index": 0
          },
          "glossinessFactor": 0.755651521,
          "specularFactor": [
            0.0,
            0.0,
            0.0
          ]
        }
      },
      "name": "bananan"
    },
    {
      "doubleSided": true,
      "extensions": {
        "KHR_materials_pbrSpecularGlossiness": {
          "diffuseFactor": [
            0.8,
            0.794471,
            0.497377,
            1.0
          ],
          "glossinessFactor": 0.4334023433,
          "specularFactor": [
            0.0,
            0.0,
            0.0
          ]
        }
      },
      "name": "banana_flesh"
    },
    {
      "doubleSided": true,
      "extensions": {
        "KHR_materials_pbrSpecularGlossiness": {
          "diffuseFactor": [
            0.787399,
            0.168675,
            0.00705423,
            1.0
          ],
          "glossinessFactor": 0.68820112,
          "specularFactor": [
            0.0,
            0.0,
            0.0
          ]
        }
      },
      "name": "plastic_touched"
    },
    {
      "doubleSided": true,
      "extensions": {
        "KHR_materials_pbrSpecularGlossiness": {
          "diffuseFactor": [
            0.0,
            0.0,
            0.0,
            1.0
          ],
          "glossinessFactor": 1.0,
          "specularFactor": [
            0.0,
            0.0,
            0.0
          ]
        }
      },
      "name": "plastic_touched.002"
    },
    {
      "doubleSided": true,
      "extensions": {
        "KHR_materials_pbrSpecularGlossiness": {
          "diffuseFactor": [
            0.787399,
            0.168675,
            0.00705423,
            1.0
          ],
          "glossinessFactor": 1.0,
          "specularFactor": [
            0.0,
            0.0,
            0.0
          ]
        }
      },
      "name": "plastic_touched.001"
    }
  ],
  "meshes": [
    {
      "name": "Object_0",
      "primitives": [
        {
          "attributes": {
            "NORMAL": 1,
            "POSITION": 0,
            "TEXCOORD_0": 2
          },
          "indices": 3,
          "material": 0,
          "mode": 4
        }
      ]
    },
    {
      "name": "Object_1",
      "primitives": [
        {
          "attributes": {
            "NORMAL": 5,
            "POSITION": 4,
            "TEXCOORD_0": 6
          },
          "indices": 7,
          "material": 1,
          "mode": 4
        }
      ]
    },
    {
      "name": "Object_2",
      "primitives": [
        {
          "attributes": {
            "NORMAL": 9,
            "POSITION": 8,
            "TEXCOORD_0": 10
          },
          "indices": 11,
          "material": 1,
          "mode": 4
        }
      ]
    },
    {
      "name": "Object_3",
      "primitives": [
        {
          "attributes": {
            "NORMAL": 13,
            "POSITION": 12,
            "TEXCOORD_0": 14
          },
          "indices": 15,
          "material": 2,
          "mode": 4
        }
      ]
    },
    {
      "name": "Object_4",
      "primitives": [
        {
          "attributes": {
            "NORMAL": 17,
            "POSITION": 16,
            "TEXCOORD_0": 18
          },
          "indices": 19,
          "material": 2,
          "mode": 4
        }
      ]
    },
    {
      "name": "Object_5",
      "primitives": [
        {
          "attributes": {
            "NORMAL": 21,
            "POSITION": 20,
            "TEXCOORD_0": 22
          },
          "indices": 23,
          "material": 2,
          "mode": 4
        }
      ]
    },
    {
      "name": "Object_6",
      "primitives": [
        {
          "attributes": {
            "NORMAL": 25,
            "POSITION": 24,
            "TEXCOORD_0": 26
          },
          "indices": 27,
          "material": 2,
          "mode": 4
        }
      ]
    },
    {
      "name": "Object_7",
      "primitives": [
        {
          "attributes": {
            "NORMAL": 29,
            "POSITION": 28,
            "TEXCOORD_0": 30
          },
          "indices": 31,
          "material": 2,
          "mode": 4
        }
      ]
    },
    {
      "name": "Object_8",
      "primitives": [
        {
          "attributes": {
            "NORMAL": 33,
            "POSITION": 32,
            "TEXCOORD_0": 34
          },
          "indices": 35,
          "material": 2,
          "mode": 4
        }
      ]
    },
    {
      "name": "Object_9",
      "primitives": [
        {
          "attributes": {
            "NORMAL": 37,
            "POSITION": 36,
            "TEXCOORD_0": 38
          },
          "indices": 39,
          "material": 2,
          "mode": 4
        }
      ]
    },
    {
      "name": "Object_10",
      "primitives": [
        {
          "attributes": {
            "NORMAL": 41,
            "POSITION": 40,
            "TEXCOORD_0": 42
          },
          "indices": 43,
          "material": 3,
          "mode": 4
        }
      ]
    },
    {
      "name": "Object_11",
      "primitives": [
        {
          "attributes": {
            "NORMAL": 45,
            "POSITION": 44,
            "TEXCOORD_0": 46
          },
          "indices": 47,
          "material": 4,
          "mode": 4
        }
      ]
    }
  ],
  "nodes": [
    {
      "children": [
        1
      ],
      "matrix": [
        1.0,
        0.0,
        0.0,
        0.0,
        0.0,
        2.220446049250313e-16,
        -1.0,
        0.0,
        0.0,
        1.0,
        2.220446049250313e-16,
        0.0,
        0.0,
        0.0,
        0.0,
        1.0
      ],
      "name": "Sketchfab_model"
    },
    {
      "children": [
        2
      ],
      "name": "root"
    },
    {
      "children": [
        3,
        6,
        8,
        16,
        18
      ],
      "matrix": [
        1.0,
        0.0,
        0.0,
        0.0,
        0.0,
        2.220446049250313e-16,
        1.0,
        0.0,
        0.0,
        -1.0,
        2.220446049250313e-16,
        0.0,
        0.0,
        0.0,
        0.0,
        1.0
      ],
      "name": "GLTF_SceneRootNode"
    },
    {
      "children": [
        4,
        5
      ],
      "matrix": [
        1.0,
        0.0,
        0.0,
        0.0,
        0.0,
        0.8161183986664803,
        0.5778847284347113,
        0.0,
        0.0,
        -0.5778847284347113,
        0.8161183986664803,
        0.0,
        0.0,
        0.0,
        0.0,
        1.0
      ],
      "name": "peel_0"
    },
    {
      "mesh": 0,
      "name": "Object_4"
    },
    {
      "mesh": 1,
      "name": "Object_5"
    },
    {
      "children": [
        7
      ],
      "matrix": [
        1.0,
        0.0,
        0.0,
        0.0,
        0.0,
        -1.685873969314855e-07,
        0.9999999999999858,
        0.0,
        0.0,
        -0.9999999999999858,
        -1.685873969314855e-07,
        0.0,
        0.0,
        0.0,
        0.0,
        1.0
      ],
      "name": "goose.001_1"
    },
    {
      "mesh": 2,
      "name": "Object_7"
    },
    {
      "children": [
        9,
        10,
        11,
        12,
        13,
        14,
        15
      ],
      "matrix": [
        1.0,
        0.0,
        0.0,
        0.0,
        0.0,
        -1.685873969314855e-07,
        0.9999999999999858,
        0.0,
        0.0,
        -0.9999999999999858,
        -1.685873969314855e-07,
        0.0,
        0.0,
        0.0,
        -0.08413230627775192,
        1.0
      ],
      "name": "beak_2"
    },
    {
      "mesh": 3,
      "name": "Object_9"
    },
    {
      "mesh": 4,
      "name": "Object_10"
    },
    {
      "mesh": 5,
      "name": "Object_11"
    },
    {
      "mesh": 6,
      "name": "Object_12"
    },
    {
      "mesh": 7,
      "name": "Object_13"
    },
    {
      "mesh": 8,
      "name": "Object_14"
    },
    {
      "mesh": 9,
      "name": "Object_15"
    },
    {
      "children": [
        17
      ],
      "matrix": [
        0.15832540392875671,
        0.0,
        0.0,
        0.0,
        0.0,
        0.15832540392875671,
        0.0,
        0.0,
        0.0,
        0.0,
        0.15832540392875671,
        0.0,
        0.4802200496196747,
        6.3896284103393555,
        -1.2586443424224854,
        1.0
      ],
      "name": "Cube.001_3"
    },
    {
      "mesh": 10,
      "name": "Object_17"
    },
    {
      "children": [
        19
      ],
      "matrix": [
        0.48916804790496826,
        0.0,
        0.0,
        0.0,
        0.0,
        0.10072593506650433,
        0.018611870503568835,
        0.0,
        0.0,
        -0.1768810734801627,
        0.9572660372013723,
        0.0,
        -0.05689392611384392,
        5.413908004760742,
        -0.31253084540367126,
        1.0
      ],
      "name": "Cube.002_4"
    },
    {
      "mesh": 11,
      "name": "Object_19"
    }
  ],
  "samplers": [
    {
      "magFilter": 9729,
      "minFilter": 9987,
      "wrapS": 10497,
      "wrapT": 10497
    }
  ],
  "scene": 0,
  "scenes": [
    {
      "name": "Sketchfab_Scene",
      "nodes": [
        0
      ]
    }
  ],
  "textures": [
    {
      "sampler": 0,
      "source": 0
    }
  ]
}
